<?xml version="1.0" encoding="UTF-8"?> <svg xmlns="http://www.w3.org/2000/svg" width="32" height="32" viewBox="0 0 32 32" fill="none"><path d="M2.02999 3.77839C-2.83939 9.62165 7.87325 31.7773 15.4208 31.7773C19.5598 31.7773 31.2463 15.2214 31.2463 9.62165C31.2463 2.80452 25.1596 -0.60405 19.3163 3.04799C15.4208 5.48268 13.7165 5.48268 11.2818 3.04799C7.38632 -0.847519 5.68203 -0.60405 2.02999 3.77839ZM10.5514 7.6739C12.0122 12.2998 12.4992 12.2998 16.3947 8.89124C21.9945 3.77839 26.3769 4.02186 26.3769 8.89124C26.3769 13.5172 17.1251 29.3427 14.4469 29.3427C11.0384 29.3427 2.02999 10.3521 3.49081 6.45655C5.43856 1.10023 8.60366 1.58717 10.5514 7.6739Z" fill="#53332A"></path></svg> 