<?xml version="1.0" encoding="UTF-8"?> <svg xmlns="http://www.w3.org/2000/svg" width="320" height="319" viewBox="0 0 320 319" fill="none"><path d="M61.6641 66.912C61.6641 67.2923 61.9973 67.625 62.3782 67.625C62.7591 67.625 63.0924 67.2923 63.0924 66.912C63.0924 66.5317 62.7591 66.199 62.3782 66.199C61.9973 66.199 61.6641 66.5317 61.6641 66.912Z" fill="#3D2314"></path><path d="M35 72.3288C35 72.614 35.2381 72.9468 35.4761 73.0894C35.7618 73.232 35.9522 73.0418 35.9522 72.6616C35.9522 72.2338 35.7618 71.901 35.4761 71.901C35.2381 71.901 35 72.0912 35 72.3288Z" fill="#3D2314"></path><path d="M93.0867 74.7049C91.2298 76.5587 90.8965 78.0798 91.9916 80.3139C92.801 81.9776 92.8486 82.0251 92.9914 80.9318C93.2295 78.7928 94.0865 77.2717 95.2768 76.7013C97.7526 75.6081 99.3714 76.4161 100.419 79.3157L101.085 81.1695L101.609 79.8861C103.514 75.0377 96.8004 70.9498 93.0867 74.7049Z" fill="#3D2314"></path><path d="M196.883 74.2786C196.883 74.5162 197.121 74.7539 197.359 74.7539C197.645 74.7539 197.835 74.5162 197.835 74.2786C197.835 73.9934 197.645 73.8032 197.359 73.8032C197.121 73.8032 196.883 73.9934 196.883 74.2786Z" fill="#3D2314"></path><path d="M174.023 77.6067C174.023 77.8444 174.261 78.082 174.5 78.082C174.785 78.082 174.976 77.8444 174.976 77.6067C174.976 77.3215 174.785 77.1314 174.5 77.1314C174.261 77.1314 174.023 77.3215 174.023 77.6067Z" fill="#3D2314"></path><path d="M159.836 79.0782C159.932 79.4109 160.313 79.7912 160.646 79.8862C161.027 80.0288 161.217 79.8387 161.074 79.4584C160.979 79.1257 160.598 78.7454 160.265 78.6504C159.884 78.5078 159.694 78.6979 159.836 79.0782Z" fill="#3D2314"></path><path d="M95.6087 79.5063C94.0851 80.1243 94.228 81.17 95.942 81.883C97.1323 82.3584 97.5608 82.3584 98.5607 81.6929C99.2272 81.2651 99.7509 80.5046 99.7509 79.9817C99.7509 79.2211 99.4177 79.031 98.2274 79.0785C97.3704 79.0785 96.1801 79.2687 95.6087 79.5063Z" fill="#3D2314"></path><path d="M102.421 81.5037C105.04 85.9243 126.465 108.36 132.036 112.448C133.75 113.732 134.035 114.159 133.845 115.253C133.607 116.488 133.654 116.536 135.606 116.393C136.701 116.346 138.273 115.918 139.082 115.49C140.987 114.492 154.842 109.786 158.793 108.836C162.84 107.79 164.888 107.552 169.744 107.505C178.981 107.457 185.028 110.547 188.122 116.869C190.598 122.05 190.646 127.184 188.265 135.359C187.265 138.734 183.361 146.054 182.409 146.292C182.123 146.34 180.266 146.91 178.314 147.528C174.601 148.669 174.839 149.477 178.6 148.431C179.79 148.098 180.838 147.956 180.981 148.098C181.266 148.384 178.6 152.139 177.6 152.804C177.362 152.994 176.505 153.184 175.696 153.232C174.934 153.232 173.506 153.565 172.601 153.945L170.934 154.61L173.839 154.468L176.743 154.325L175.077 156.559C173.506 158.698 173.267 158.841 170.506 159.126C166.269 159.601 165.554 160.267 169.173 160.314H172.22L170.649 162.263C168.887 164.45 169.03 164.402 165.364 164.83C162.126 165.21 161.603 166.114 164.745 165.971C165.888 165.876 166.983 165.923 167.078 166.066C167.221 166.161 166.602 167.064 165.792 168.062C164.602 169.488 163.84 169.916 162.222 170.106C160.127 170.344 157.841 171.057 157.841 171.437C157.841 171.58 158.936 171.532 160.317 171.39L162.793 171.105L161.174 173.053C159.555 175.097 159.27 175.24 156.365 175.715C155.365 175.906 154.366 176.333 154.08 176.666C153.651 177.189 153.889 177.236 155.556 176.951C156.699 176.714 157.651 176.619 157.698 176.666C157.794 176.714 156.889 177.712 155.746 178.805L153.651 180.849L152.128 178.805C150.366 176.381 147.367 170.629 147.367 169.631C147.367 169.298 148.271 167.92 149.414 166.684C156.508 158.698 168.935 140.208 174.648 129.085C177.124 124.332 180.362 116.298 180.124 115.585C180.028 115.348 178.838 117.487 177.505 120.291L174.982 125.472L172.077 125.805C165.412 126.566 155.603 130.226 150.414 133.981C143.605 138.782 140.653 142.632 134.511 154.373C129.131 164.735 125.465 176.191 125.37 183.036C125.37 185.317 124.894 185.745 117.752 190.403C107.134 197.296 93.327 203.76 83.0904 206.612C79.1863 207.706 72.2349 208.799 69.3306 208.799C67.9022 208.799 66.9024 208.941 67.0452 209.084C67.4261 209.512 74.8536 209.464 77.8055 209.036C79.5196 208.799 80.6622 208.989 82.5667 209.749C83.9951 210.272 85.233 210.605 85.3758 210.51C85.471 210.367 84.9949 210.035 84.2331 209.749C83.4713 209.464 82.5191 209.132 82.1382 208.941C81.7097 208.799 82.5667 208.371 84.2331 207.991C86.8042 207.373 87.1851 207.42 88.9943 208.228C91.3749 209.322 93.7555 209.94 93.3746 209.369C93.2318 209.132 92.1367 208.561 90.8988 208.086C88.4706 207.183 88.5658 206.85 91.6606 205.852C93.6127 205.234 93.946 205.234 95.2315 205.899C96.9931 206.897 100.659 208.086 100.945 207.801C101.183 207.563 98.9452 206.375 96.517 205.471L94.9458 204.853L96.9455 203.95C99.6594 202.762 100.659 202.714 103.135 203.903C105.182 204.853 108.325 205.662 108.325 205.234C108.325 204.901 105.42 203.523 103.373 202.857L101.421 202.287L104.23 201.003L107.039 199.72L109.467 200.671C112.324 201.811 116.133 202.524 114.99 201.716C114.61 201.431 112.896 200.766 111.229 200.195L108.134 199.149L110.848 197.771C113.562 196.44 113.61 196.44 115.847 197.153C118.514 198.104 121.847 198.579 121.466 197.961C121.228 197.581 118.799 196.725 116.276 196.202C114.657 195.87 114.895 195.442 117.562 193.873C119.323 192.875 119.894 192.732 121.228 193.113C122.132 193.398 123.513 193.588 124.37 193.588C125.179 193.588 126.036 193.778 126.179 194.063C126.56 194.681 128.798 200.861 128.798 201.288C128.798 201.859 119.894 207.848 116.038 209.892C103.373 216.547 83.8046 220.92 74.0442 219.256C69.9019 218.543 67.9975 217.83 65.9978 216.119C63.2839 213.837 62.8554 212.506 62.903 206.184C62.9506 200.005 63.9981 194.206 66.1882 187.884C66.9024 185.935 67.569 183.986 67.7118 183.558C67.8546 183.036 68.2831 182.893 69.0925 183.036C69.7591 183.131 70.2352 183.036 70.2352 182.703C70.2352 182.418 69.8067 182.18 69.283 182.18C68.3784 182.18 68.426 181.942 70.0448 178.71C72.7587 173.339 75.6154 169.346 79.9957 164.83C82.2334 162.549 84.0427 160.457 84.0427 160.219C84.0427 159.221 78.6625 162.691 72.3778 167.682C67.6642 171.437 60.2367 178.567 60.2367 179.328C60.2367 180.136 65.474 176.809 72.3778 171.627L73.8061 170.534L73.0443 171.723C70.6637 175.43 68.2831 179.518 67.4261 181.324C66.6643 182.988 65.8073 183.844 63.141 185.507C61.2842 186.696 59.7606 187.789 59.7606 188.027C59.7606 188.454 62.2364 187.266 64.2361 185.84C65.5693 184.889 65.6169 184.889 65.2836 185.745C65.0931 186.22 64.617 187.599 64.2361 188.835C63.6172 190.688 63.1887 191.164 60.9985 192.305C59.5701 193.065 57.9513 194.206 57.3324 194.871L56.1897 196.06L58.5703 194.824C59.9034 194.158 61.4746 193.208 62.0936 192.78C63.2363 191.924 63.2839 191.924 62.903 193.113C62.7125 193.778 62.284 195.204 61.9984 196.25C61.5698 197.676 60.8557 198.674 59.3321 199.815C56.9039 201.716 54.1424 204.996 55.7136 204.188C56.2373 203.903 57.7133 202.714 58.9988 201.621L61.3318 199.53L61.0461 201.431C60.8557 202.477 60.7128 203.903 60.7128 204.568C60.7128 205.234 60.2843 206.184 59.8082 206.755C58.7131 207.896 57.6181 210.035 57.1895 211.746C56.761 213.695 57.1419 213.41 58.7131 210.605C60.0463 208.323 60.1891 208.228 60.4272 209.274C61.427 213.647 61.6651 215.216 61.3794 216.024C60.9985 217.26 61.6175 220.302 62.1888 219.969C62.4269 219.779 62.5221 219.446 62.3316 219.209C62.1888 218.923 62.1888 218.21 62.3316 217.545L62.6649 216.357L64.4742 217.925C65.5693 218.828 66.5691 220.207 66.8548 221.205C67.1404 222.156 67.9498 223.297 68.6164 223.772L69.8543 224.58L68.5212 222.298L67.1881 220.064L68.3784 220.397C74.5203 222.108 75.3297 222.203 81.6621 221.966C87.2803 221.728 90.5655 221.253 97.374 219.732C98.2787 219.541 99.7546 219.209 100.612 219.019C103.135 218.448 102.373 219.114 98.4691 220.967C84.5664 227.432 69.521 229.428 59.4273 226.101C51.8094 223.629 45.8579 214.313 45.1913 203.903C44.9057 199.054 45.5246 191.497 46.6673 186.553C47.81 181.705 48.9527 177.712 49.286 177.284C49.4764 177.094 50.5239 177.332 51.7142 177.854C52.8569 178.425 54.5233 178.853 55.4279 178.853H57.0467L55.1898 177.427C52.2379 175.097 45.9531 168.728 45.9531 168.062C45.9531 167.397 44.2391 167.207 43.8582 167.825C43.5249 168.395 45.6675 172.673 47.2863 174.527L48.667 176.143L47.0958 180.564C44.3343 188.502 42.6203 198.341 42.906 204.283C43.3821 214.931 48.8098 224.485 56.3801 228.097C65.8549 232.566 83.2809 231.14 97.136 224.77C103.326 221.918 118.18 213.029 126.37 207.23C129.893 204.711 131.179 204.283 131.179 205.519C131.179 206.089 135.797 213.124 137.844 215.691C140.939 219.541 146.938 225.483 150.937 228.573C153.556 230.617 164.935 238.27 166.126 238.793C166.697 239.03 167.887 239.696 168.792 240.219C179.79 246.873 197.264 252.72 211.833 254.669C219.308 255.667 232.83 255.477 238.163 254.241C257.398 249.915 267.396 241.312 275.586 222.108C278.299 215.691 279.49 211.556 280.394 204.996C281.299 198.246 281.347 195.062 280.49 189.453C278.871 178.805 275.728 172.245 267.634 162.881C259.159 152.994 250.494 145.959 238.639 139.4C225.117 131.889 214.261 127.897 201.692 125.9C199.216 125.472 197.169 125.092 197.073 124.997C196.978 124.902 197.216 123.809 197.645 122.573C198.121 121.194 198.549 120.529 198.787 120.862C199.026 121.242 199.216 121.194 199.454 120.624C199.883 119.531 199.835 119.436 199.026 119.436C198.502 119.436 198.407 119.103 198.692 117.867C199.264 115.348 199.073 108.408 198.359 105.888C196.074 97.6651 190.932 92.7692 182.361 90.7253C177.076 89.3943 167.078 89.632 160.174 91.2006C159.127 91.4382 158.698 91.153 157.175 89.0616C154.937 86.0194 150.509 82.0266 148.985 81.7414C148.271 81.6463 147.557 81.884 147.081 82.4069C146.319 83.2625 146.319 83.31 147.224 83.31C147.795 83.31 149.081 84.4033 150.509 86.0194C151.794 87.5405 153.889 89.727 155.223 90.9154L157.651 93.0544L154.366 94.8607L151.08 96.6669L149.462 95.7163C148.604 95.1934 147.081 94.623 146.081 94.4804C142.177 93.8149 142.224 93.9575 143.415 89.1091C143.843 87.3504 142.32 88.3486 140.844 90.8203C138.225 95.1934 137.701 97.2373 139.177 97.0472C139.606 96.9997 140.415 97.0472 140.939 97.0472C141.796 97.1423 141.748 97.2374 140.701 97.7127C139.511 98.2355 139.511 98.2355 141.177 98.4257C142.129 98.4732 144.367 98.2355 146.176 97.9028C148.033 97.5225 149.604 97.2849 149.7 97.38C149.795 97.475 149.271 98.0454 148.509 98.6158C143.986 102.086 136.368 110.499 137.13 111.26C137.416 111.545 140.32 109.549 143.605 106.792C145.034 105.556 147.367 103.607 148.795 102.419C150.223 101.183 153.032 98.6634 154.984 96.8096C158.841 93.197 160.079 92.5315 163.84 92.3889C165.888 92.2938 166.602 92.5315 168.744 94.0051C171.934 96.1441 172.934 96.1441 170.506 94.0051L168.649 92.3414H171.506C174.363 92.3414 174.41 92.3889 176.172 94.5279C178.219 96.9997 178.886 96.9997 177.457 94.4804C176.315 92.579 176.41 92.5315 179.933 93.1495C181.6 93.3871 181.885 93.6723 183.123 96.3342C184.266 98.7109 184.504 98.9961 184.504 97.9028C184.504 97.1423 184.266 96.1441 183.98 95.5737C183.218 94.1477 183.742 94.0526 186.123 95.1934C188.36 96.2391 188.503 96.5243 189.027 99.8517C189.456 102.371 190.36 101.943 190.122 99.3288L189.932 97.4275L191.741 99.4714C193.36 101.278 193.55 101.801 193.598 104.177C193.645 105.651 193.741 106.459 193.883 105.984C194.645 103.036 196.121 108.313 196.121 113.969C196.121 118.247 195.502 121.052 193.455 126.423C192.931 127.801 192.455 128.942 192.407 128.942C192.407 128.942 192.36 126.518 192.36 123.571C192.312 118.723 192.217 118.01 190.979 115.633C188.551 110.784 188.075 109.929 187.789 109.929C187.599 109.929 186.218 109.168 184.694 108.265C178.981 104.843 171.649 103.607 163.65 104.7C158.508 105.413 154.794 106.554 149.414 109.026C147.129 110.071 145.462 110.737 145.7 110.499C145.986 110.262 147.367 109.026 148.795 107.79C154.842 102.514 158.746 98.8535 159.032 98.188C159.222 97.6176 159.127 97.5701 158.698 97.9028C152.366 102.704 145.653 108.313 142.034 111.783C139.511 114.159 137.32 116.108 137.13 116.108C136.94 116.108 136.94 115.348 137.082 114.397C137.559 112.02 136.463 110.499 134.035 110.119C133.035 109.929 131.797 109.406 131.369 108.931C130.417 107.885 130.417 107.932 134.654 108.027C136.13 108.075 137.368 107.98 137.368 107.837C137.368 107.41 134.035 105.841 131.75 105.128C129.893 104.605 128.893 103.749 128.893 102.656C128.846 100.517 127.132 93.9575 126.417 93.1495C125.941 92.6266 125.417 97.7602 125.703 100.28C125.798 101.42 125.798 102.323 125.703 102.323C125.608 102.323 123.799 100.565 121.704 98.3782C118.085 94.6705 117.942 94.4329 118.609 93.4347C118.942 92.8643 119.276 91.9611 119.276 91.3907C119.276 90.6777 119.609 90.44 120.609 90.3925C125.798 90.2024 133.988 89.1566 138.32 88.0158C146.224 86.0669 146.224 86.0669 144.986 85.5916C144.034 85.2589 136.892 85.449 133.559 85.9243C128.322 86.6849 124.751 87.3028 121.989 87.9208C119.609 88.4912 118.466 88.5387 117.704 88.1584C116.038 87.3504 114.705 87.2077 113.848 87.6831C113.086 88.1109 113.181 88.3486 114.705 89.727C115.657 90.5826 116.419 91.6284 116.419 92.0562C116.419 93.1494 115.895 92.7692 112.134 89.2042C110.42 87.588 108.277 85.6391 107.373 84.9261C106.468 84.1656 105.087 82.9772 104.278 82.2643C102.802 80.8858 101.85 80.5055 102.421 81.5037ZM204.834 128.467C207.929 128.99 211.214 129.608 212.119 129.845C213.023 130.131 215.071 130.701 216.642 131.129C221.546 132.507 225.117 133.838 228.307 135.549C234.258 138.687 242.4 143.868 247.114 147.433C252.732 151.711 264.873 163.357 265.206 164.783C265.349 165.353 265.301 166.399 265.063 167.112L264.73 168.443L263.111 166.494C262.111 165.21 261.445 163.784 261.207 162.311C260.873 160.219 260.873 160.172 260.493 161.455L260.159 162.834L258.302 161.027C257.303 160.029 256.35 158.746 256.207 158.128C256.017 157.51 255.684 156.987 255.398 156.987C255.112 156.987 255.065 157.272 255.303 157.558C255.493 157.89 254.732 157.415 253.636 156.512C252.494 155.609 251.018 154.42 250.304 153.897C249.589 153.375 247.828 152.044 246.304 150.903C244.828 149.81 243.495 148.906 243.352 148.906C243.257 148.906 241.876 148.098 240.353 147.053C235.972 144.201 219.213 136.072 217.594 136.072C217.213 136.072 216.832 135.882 216.69 135.645C216.547 135.407 215.928 135.122 215.356 134.979C214.737 134.836 212.119 134.076 209.5 133.315C206.882 132.507 202.692 131.509 200.216 131.081C197.74 130.653 195.597 130.226 195.407 130.083C195.217 129.988 195.312 129.37 195.597 128.705C196.312 127.231 197.264 127.184 204.834 128.467ZM172.41 129.845C171.887 130.844 171.125 131.319 169.411 131.794C158.032 134.836 151.556 138.972 146.843 146.197C144.034 150.475 143.32 153.422 143.367 160.077C143.415 167.825 144.986 172.863 149.557 179.898C150.699 181.705 151.652 183.606 151.652 184.129C151.652 184.652 151.842 184.984 152.128 184.794C152.366 184.652 153.27 185.317 154.127 186.315C161.412 194.824 173.41 204.093 184.075 209.607C199.835 217.735 214.785 221.11 232.592 220.492C249.113 219.969 254.113 218.781 261.778 213.647C267.825 209.654 270.824 205.234 272.776 197.676C274.014 193.018 274.3 191.069 273.538 192.875C273.253 193.54 273.11 193.065 273.11 191.164C273.062 189.69 273.395 187.694 273.776 186.743C274.538 184.937 274.3 184.462 273.3 185.84C272.776 186.553 272.634 186.41 272.062 184.652C271.539 182.893 271.586 182.275 272.253 180.374C273.348 177.284 273.253 176.856 271.967 178.995L270.824 180.849L269.967 178.615C269.206 176.619 269.206 176.048 269.729 173.814C270.063 172.388 270.491 171.247 270.682 171.247C271.158 171.247 274.824 177.949 275.824 180.754C277.538 185.46 278.014 188.502 278.061 194.301C278.061 204.045 275.633 209.179 268.349 214.931C263.778 218.496 254.303 222.536 252.018 221.918C251.446 221.775 250.78 221.966 250.494 222.346C249.018 224.2 230.878 225.293 221.641 224.057C211.786 222.726 201.93 220.445 191.836 217.117C181.552 213.695 168.221 204.758 156.603 193.493C139.225 176.619 134.369 162.406 141.177 148.621C145.319 140.303 154.366 133.268 164.745 130.368C166.84 129.798 169.078 129.132 169.744 128.942C170.411 128.705 171.411 128.514 172.03 128.514C173.077 128.467 173.077 128.514 172.41 129.845ZM198.549 132.983C204.882 133.981 216.642 138.116 226.307 142.775C243.209 150.95 255.922 160.837 262.826 171.247C267.444 178.235 270.682 187.171 270.682 193.018C270.682 199.102 268.301 204.949 264.159 208.989C260.016 213.124 260.064 213.124 258.493 209.417C255.589 202.572 250.161 194.871 244.019 188.835C232.735 177.664 216.213 167.73 202.12 163.594C200.406 163.071 198.407 162.501 197.597 162.216C195.502 161.55 185.361 159.934 180.79 159.506L176.886 159.126L178.41 156.94C179.267 155.751 180.124 154.706 180.362 154.563C180.552 154.468 181.79 155.276 183.076 156.417C184.409 157.558 185.456 158.223 185.456 157.938C185.456 157.32 182.219 154.135 181.6 154.135C180.695 154.135 181.266 152.994 183.933 149.334C189.217 142.014 190.17 140.54 192.217 136.405C194.074 132.602 194.36 132.27 195.455 132.46C196.121 132.602 197.502 132.793 198.549 132.983ZM170.22 133.125C170.22 133.933 162.269 145.436 155.794 154.04C150.033 161.645 146.652 165.448 146.081 164.925C145.891 164.688 145.7 161.788 145.7 158.508C145.7 152.757 145.795 152.329 147.176 149.382C150.414 142.489 156.508 137.118 163.84 134.694C166.173 133.933 168.506 133.22 169.03 133.078C169.554 132.935 170.03 132.84 170.125 132.793C170.173 132.793 170.22 132.888 170.22 133.125ZM135.416 161.503C135.464 171.342 141.225 181.752 152.699 192.875C158.079 198.104 159.127 199.054 163.079 202.144C181.362 216.499 208.167 226.624 230.211 227.479C245.542 228.097 260.255 224.342 269.015 217.64C272.015 215.358 275.538 211.366 277.014 208.561C277.728 207.23 277.776 207.23 277.823 208.228C277.871 211.984 271.3 226.624 266.301 233.801C257.445 246.588 240.448 253.48 219.499 252.672C207.262 252.245 191.408 248.68 179.79 243.784C173.458 241.122 158.174 231.567 157.508 229.904C157.365 229.523 156.984 229.238 156.603 229.238C155.556 229.238 147.557 222.251 143.605 217.878C132.226 205.186 126.56 191.116 128.274 179.898C129.179 174.194 131.417 165.828 133.083 161.978C133.321 161.455 133.75 160.219 134.083 159.269C134.892 156.94 135.368 157.795 135.416 161.503ZM184.409 162.026C192.074 163.214 200.311 165.496 207.12 168.205C228.164 176.619 248.066 193.493 255.684 209.322C256.588 211.271 257.35 213.077 257.35 213.362C257.35 213.647 256.112 214.455 254.636 215.121C248.352 217.878 238.972 219.256 228.307 219.019C208.357 218.543 187.98 210.89 170.268 197.248C163.84 192.257 155.794 184.509 155.984 183.463C156.08 183.036 157.698 181.134 159.555 179.233C163.459 175.193 172.363 165.02 173.934 162.786C174.934 161.408 175.267 161.265 177.41 161.265C178.695 161.265 181.838 161.598 184.409 162.026ZM268.92 168.918C270.158 170.582 270.158 170.677 269.444 172.103C268.396 174.242 268.015 174.289 266.92 172.388C266.206 171.247 265.92 169.916 265.92 168.062C265.92 165.448 265.968 165.401 266.777 166.304C267.253 166.779 268.206 167.967 268.92 168.918ZM125.703 190.784C125.894 191.592 125.894 192.352 125.751 192.495C125.608 192.637 124.465 192.542 123.227 192.305L120.942 191.924L122.846 190.593C123.894 189.88 124.894 189.31 125.084 189.31C125.227 189.31 125.513 189.975 125.703 190.784Z" fill="#3D2314"></path><path d="M188.172 154.802C188.743 155.752 191.362 158.652 192.076 159.127C193.076 159.745 191.742 157.464 190.076 155.657C188.6 154.136 187.457 153.613 188.172 154.802Z" fill="#3D2314"></path><path d="M196.36 157.318C197.884 159.742 199.741 161.786 199.741 160.931C199.741 160.218 196.265 155.417 195.551 155.179C195.218 155.084 195.599 156.035 196.36 157.318Z" fill="#3D2314"></path><path d="M202.594 157.177C202.594 158.127 205.879 163.404 206.212 163.023C206.546 162.738 204.689 159.078 203.498 157.509C202.784 156.606 202.594 156.559 202.594 157.177Z" fill="#3D2314"></path><path d="M209.258 158.555C209.258 159.221 211.591 163.927 212.305 164.83C213.114 165.781 213.114 165.781 212.829 164.592C212.353 162.738 210.734 159.506 209.924 158.888C209.591 158.555 209.258 158.413 209.258 158.555Z" fill="#3D2314"></path><path d="M216.398 161.36C216.398 162.121 218.398 167.159 219.017 168.062C219.779 169.108 219.779 169.108 219.493 167.682C218.969 165.21 217.827 162.311 217.065 161.74C216.732 161.408 216.398 161.265 216.398 161.36Z" fill="#3D2314"></path><path d="M223.356 165.782C223.689 167.826 225.308 172.009 225.689 171.677C226.022 171.344 224.737 166.876 223.832 165.307L223.07 163.881L223.356 165.782Z" fill="#3D2314"></path><path d="M252.586 168.396C252.586 168.633 252.824 168.871 253.062 168.871C253.348 168.871 253.538 168.633 253.538 168.396C253.538 168.111 253.348 167.92 253.062 167.92C252.824 167.92 252.586 168.111 252.586 168.396Z" fill="#3D2314"></path><path d="M229.734 169.583C229.734 171.105 230.639 174.622 231.258 175.24C231.829 175.953 231.734 174.194 230.972 171.295C230.163 168.3 229.734 167.73 229.734 169.583Z" fill="#3D2314"></path><path d="M235.445 172.957C235.445 174.383 236.54 179.136 236.969 179.564C237.683 180.277 236.874 174.525 236.112 173.385C235.731 172.862 235.445 172.672 235.445 172.957Z" fill="#3D2314"></path><path d="M241.205 179.564C241.205 180.61 241.538 182.226 241.919 183.129L242.586 184.793L242.395 182.084C242.109 178.709 241.157 176.665 241.205 179.564Z" fill="#3D2314"></path><path d="M246.541 185.886C246.636 187.265 246.969 188.643 247.207 188.881C247.874 189.546 247.493 185.173 246.827 184.127C246.493 183.557 246.398 184.032 246.541 185.886Z" fill="#3D2314"></path><path d="M251.208 190.784C251.208 191.687 251.446 192.828 251.684 193.351C251.97 193.969 252.018 193.541 251.827 191.925C251.446 189.073 251.161 188.502 251.208 190.784Z" fill="#3D2314"></path><path d="M269.012 193.587C268.87 193.825 268.965 194.062 269.203 194.062C269.489 194.062 269.727 193.825 269.727 193.587C269.727 193.302 269.631 193.112 269.536 193.112C269.393 193.112 269.155 193.302 269.012 193.587Z" fill="#3D2314"></path><path d="M255.016 195.966C255.016 196.347 255.206 197.107 255.444 197.63C255.682 198.248 255.873 198.296 255.873 197.868C255.873 197.488 255.682 196.727 255.444 196.204C255.206 195.586 255.016 195.539 255.016 195.966Z" fill="#3D2314"></path><path d="M255.922 200.908C255.922 201.288 256.16 201.763 256.398 201.906C256.684 202.048 256.874 201.858 256.874 201.478C256.874 201.098 256.684 200.622 256.398 200.48C256.16 200.337 255.922 200.527 255.922 200.908Z" fill="#3D2314"></path><path d="M144.504 190.734C146.552 194.727 156.217 205.137 162.597 210.175C175.928 220.68 195.64 228.809 210.447 229.902C214.637 230.187 214.637 230.187 210.209 228.999C202.734 227.002 196.449 225.006 192.83 223.532C192.307 223.295 190.926 222.724 189.736 222.249C185.974 220.728 177.261 216.307 173.071 213.788C164.216 208.417 156.979 202.665 149.027 194.679C146.218 191.875 144.171 190.069 144.504 190.734Z" fill="#3D2314"></path><path d="M130.227 192.4C130.227 192.781 130.465 193.113 130.703 193.113C130.988 193.113 131.179 192.781 131.179 192.4C131.179 192.02 130.988 191.687 130.703 191.687C130.465 191.687 130.227 192.02 130.227 192.4Z" fill="#3D2314"></path><path d="M150.935 194.54C150.792 194.778 151.078 195.016 151.602 195.016C152.125 195.016 152.697 194.778 152.84 194.54C152.982 194.255 152.697 194.065 152.173 194.065C151.649 194.065 151.078 194.255 150.935 194.54Z" fill="#3D2314"></path><path d="M134.984 197.107C136.746 201.766 140.46 207.565 145.459 213.411C147.411 215.693 148.982 217.832 148.887 218.165C148.792 218.497 149.125 218.783 149.554 218.783C149.982 218.783 152.077 220.256 154.267 222.062C161.361 228.052 170.931 234.231 178.216 237.558C179.835 238.319 181.168 239.222 181.168 239.602C181.168 240.03 181.454 240.173 181.93 239.983C182.358 239.792 183.929 240.078 185.405 240.601C197.404 244.784 211.259 247.35 220.924 247.255L225.209 247.208L215.925 245.639C196.118 242.312 183.644 237.986 169.979 229.715C155.124 220.731 144.316 210.844 137.365 199.864C134.794 195.824 134.222 195.158 134.984 197.107Z" fill="#3D2314"></path><path d="M269.629 221.492C269.963 221.635 270.391 221.587 270.534 221.444C270.724 221.302 270.439 221.159 269.915 221.207C269.391 221.207 269.248 221.349 269.629 221.492Z" fill="#3D2314"></path><path d="M263.058 224.483C263.725 224.673 265.011 224.863 265.915 224.863C267.439 224.863 267.486 224.816 266.391 224.483C265.725 224.293 264.439 224.103 263.535 224.103C262.011 224.103 261.963 224.15 263.058 224.483Z" fill="#3D2314"></path><path d="M255.442 225.959C256.918 226.957 259.537 228.145 260.918 228.478C262.156 228.763 262.251 228.716 261.632 228.145C260.87 227.432 256.157 225.436 255.252 225.436C254.966 225.436 255.062 225.673 255.442 225.959Z" fill="#3D2314"></path><path d="M250.871 229C252.157 229.903 253.395 230.664 253.585 230.664C253.776 230.664 254.3 230.806 254.776 230.996C256.442 231.614 254.918 230.188 252.443 228.762C249.015 226.813 248.015 226.956 250.871 229Z" fill="#3D2314"></path><path d="M243.776 229.997C245.775 231.804 248.251 233.277 248.585 232.897C248.727 232.754 247.918 231.946 246.775 231.09C242.871 228.048 240.633 227.24 243.776 229.997Z" fill="#3D2314"></path><path d="M235.922 229.569C235.969 229.997 239.969 233.182 240.826 233.467C241.112 233.562 240.778 232.944 239.969 232.088C238.493 230.567 235.922 228.904 235.922 229.569Z" fill="#3D2314"></path><path d="M230.73 231.424C231.635 232.09 232.73 232.85 233.206 233.088C234.729 233.944 233.158 231.9 231.539 230.997C229.397 229.761 228.873 230.046 230.73 231.424Z" fill="#3D2314"></path><path d="M165.93 190.165C165.93 190.83 166.453 191.163 167.168 190.878C167.548 190.735 167.691 190.45 167.548 190.212C167.215 189.69 165.93 189.642 165.93 190.165Z" fill="#3D2314"></path><path d="M239.259 197.105C239.259 197.533 239.259 198.008 239.211 198.199C239.211 198.389 239.354 198.626 239.592 198.674C240.163 198.864 240.258 197.01 239.687 196.677C239.449 196.487 239.259 196.725 239.259 197.105Z" fill="#3D2314"></path><path d="M188.312 203.095C188.312 203.333 188.551 203.57 188.789 203.57C189.074 203.57 189.265 203.333 189.265 203.095C189.265 202.81 189.074 202.62 188.789 202.62C188.551 202.62 188.312 202.81 188.312 203.095Z" fill="#3D2314"></path><path d="M91.0871 82.4082C90.611 82.6459 90.2301 82.741 90.2301 82.5984C90.2301 82.2181 87.3734 83.7392 85.6593 85.0701C84.7547 85.7356 83.8501 86.0683 83.374 85.8782C82.8502 85.6881 82.6122 85.8307 82.6122 86.5437C82.6122 87.0665 82.3265 87.5894 81.9932 87.732C78.8032 88.9203 56.6637 107.458 57.4255 108.219C57.5207 108.362 58.8062 107.696 60.2346 106.793C62.8532 105.129 65.7099 104.654 66.7098 105.652C67.0907 106.032 67.424 105.937 67.8525 105.415C68.1858 105.034 68.9475 104.702 69.5665 104.702C70.1378 104.702 70.8044 104.464 70.9949 104.179C71.2329 103.751 70.4711 103.656 68.1381 103.846C66.3765 103.989 65.091 103.989 65.329 103.798C65.5195 103.608 66.9002 102.61 68.3286 101.517C70.7568 99.758 71.1853 99.6154 74.2325 99.5203C78.0414 99.4728 78.708 99.1876 76.1369 98.7598C72.8993 98.2369 72.8993 98.1419 75.518 96.1455C77.5653 94.6244 78.4699 94.2441 80.0411 94.2441C83.1359 94.2441 84.2786 93.5786 81.7075 93.2934L79.6602 93.0558L81.9932 91.0594C83.2787 89.9661 84.7547 89.0154 85.2784 88.9203C86.1355 88.7777 86.1831 89.0629 85.9926 93.2934C85.8974 95.7652 85.7546 97.9042 85.6593 97.9993C85.5165 98.1419 84.8023 97.8567 83.9929 97.3813C81.5171 95.9078 80.0411 95.2423 79.8507 95.4325C79.3746 95.8603 81.898 98.6172 85.9926 102.087C88.5637 104.274 90.2301 105.462 90.0396 104.892C89.8968 104.416 89.5635 101.945 89.2778 99.4728C89.0398 97.0011 88.4684 93.4836 88.0399 91.6773C87.3734 88.9203 87.3258 88.3499 87.8971 88.0172C88.3732 87.732 88.1828 87.5894 87.2305 87.5894H85.8974L87.2305 85.9257C87.9447 85.0226 89.135 84.0244 89.8492 83.7392C90.5634 83.454 91.4204 82.9311 91.7061 82.5508C92.325 81.7903 92.1822 81.7428 91.0871 82.4082Z" fill="#3D2314"></path><path d="M169.266 85.2122C169.266 85.4498 169.599 85.6875 170.027 85.6875C170.408 85.6875 170.599 85.4498 170.456 85.2122C170.313 84.927 169.98 84.7368 169.694 84.7368C169.456 84.7368 169.266 84.927 169.266 85.2122Z" fill="#3D2314"></path><path d="M102.229 86.9694C103.134 87.9676 105.229 90.1542 106.847 91.8654C110.085 95.2878 110.037 94.86 108.657 100.802C107.562 105.412 107.181 108.692 107.8 108.312C108.085 108.122 108.514 107.124 108.8 106.03C109.18 104.795 110.037 103.511 111.228 102.418C112.466 101.277 113.085 100.326 113.085 99.5183C113.085 98.3775 113.227 98.425 115.513 100.707L117.941 103.131L116.465 104.604C115.656 105.412 114.989 106.411 114.989 106.791C114.989 108.027 117.513 107.742 118.893 106.363L120.084 105.175L124.559 109.31C127.035 111.639 129.558 113.921 130.177 114.444L131.368 115.395L130.368 113.969C127.94 110.546 102.086 85.2107 101.039 85.2107C100.753 85.2107 101.277 86.0187 102.229 86.9694ZM112.751 98.9479C112.418 99.851 110.704 101.847 110.228 101.847C110.037 101.847 110.133 100.564 110.371 98.9954L110.847 96.0959L111.942 97.1416C112.561 97.7596 112.894 98.4726 112.751 98.9479Z" fill="#3D2314"></path><path d="M97.2773 87.6835C97.6582 88.1113 97.801 88.7293 97.6106 89.0145C97.4677 89.2522 97.6582 89.4898 98.0391 89.4898C98.6104 89.4898 98.8009 89.9652 98.8009 91.3912C98.8009 93.5777 99.9435 96.1445 100.896 96.1445C102.467 96.1445 101.943 90.2979 100.277 89.2522C99.8483 89.0145 99.8483 88.7293 100.324 88.1589C100.848 87.5409 100.848 87.4934 100.324 87.7786C99.9912 87.9687 99.4198 87.8737 99.0389 87.5885C98.4676 87.1131 98.3247 87.1131 98.3247 87.5885C98.3247 88.0163 98.1343 88.0163 97.5153 87.5409C96.7535 86.923 96.7059 86.9705 97.2773 87.6835Z" fill="#3D2314"></path><path d="M149.268 89.0135C148.745 89.3462 148.697 89.7265 149.078 90.7722C149.554 92.1982 150.554 92.5785 152.411 92.1507C154.03 91.7229 153.982 89.9642 152.363 89.9642C151.697 89.9642 151.03 89.6314 150.887 89.2512C150.554 88.4431 150.268 88.3956 149.268 89.0135Z" fill="#3D2314"></path><path d="M196.169 89.0129C196.312 89.2506 196.55 89.4883 196.692 89.4883C196.788 89.4883 196.883 89.2506 196.883 89.0129C196.883 88.7277 196.645 88.5376 196.359 88.5376C196.121 88.5376 196.026 88.7277 196.169 89.0129Z" fill="#3D2314"></path><path d="M62.8556 90.4386C62.4747 91.0566 63.8078 91.5794 64.8553 91.1992C65.5695 90.914 65.5695 90.8189 64.9981 90.4386C64.0459 89.8207 63.2365 89.8682 62.8556 90.4386Z" fill="#3D2314"></path><path d="M154.266 91.8645C154.123 92.1022 154.313 92.3398 154.742 92.3398C155.17 92.3398 155.361 92.1022 155.218 91.8645C155.075 91.5793 154.837 91.3892 154.742 91.3892C154.647 91.3892 154.408 91.5793 154.266 91.8645Z" fill="#3D2314"></path><path d="M134.417 93.8625C133.084 96.3343 131.608 100.042 131.846 100.28C131.941 100.375 133.512 100.565 135.321 100.66C139.416 100.85 141.035 100.137 137.512 99.7092C133.893 99.1863 133.798 99.0437 134.75 96.0015C135.75 92.8643 135.56 91.676 134.417 93.8625Z" fill="#3D2314"></path><path d="M161.222 94.433C161.317 94.5281 162.174 94.7182 163.078 94.9083C164.269 95.0985 164.554 95.0509 164.031 94.7182C163.364 94.2904 160.745 94.0052 161.222 94.433Z" fill="#3D2314"></path><path d="M94.9922 97.9025C94.9922 102.466 97.0871 109.453 98.5155 109.453C98.7535 109.453 98.8488 107.504 98.7059 105.032C98.5155 101.8 98.1346 99.8989 97.2299 97.8074C95.5635 93.9096 94.9922 93.9096 94.9922 97.9025Z" fill="#3D2314"></path><path d="M103.845 101.895C103.035 105.745 102.607 121.003 103.274 121.716C103.607 122.049 104.988 118.484 105.416 116.202C105.654 115.061 105.94 114.063 106.035 113.968C106.13 113.825 107.13 115.061 108.273 116.63C110.32 119.53 110.368 119.862 108.797 121.336C108.654 121.478 107.654 122.619 106.654 123.903C105.464 125.376 105.083 126.042 105.702 125.709C107.321 124.853 112.129 120.338 112.129 119.72C112.129 119.339 110.749 117.438 109.13 115.394C106.178 111.829 106.083 111.591 105.987 108.787C105.892 105.745 105.226 102.18 104.559 100.991C104.273 100.516 104.083 100.754 103.845 101.895Z" fill="#3D2314"></path><path d="M166.883 101.849C166.883 102.134 167.216 102.324 167.597 102.324C167.978 102.324 168.311 102.229 168.311 102.134C168.311 102.039 167.978 101.849 167.597 101.659C167.216 101.516 166.883 101.611 166.883 101.849Z" fill="#3D2314"></path><path d="M74.1816 103.796C75.6576 104.841 76.8955 105.792 76.8955 105.887C76.8955 105.982 75.7528 106.695 74.4197 107.503C73.0389 108.311 71.3725 109.405 70.7059 109.975L69.5156 110.926L70.7059 110.641C71.9438 110.308 76.467 108.121 78.9428 106.6L80.4188 105.697L76.2765 103.748C73.9911 102.702 71.9914 101.847 71.801 101.847C71.5629 101.847 72.658 102.702 74.1816 103.796Z" fill="#3D2314"></path><path d="M203.598 102.75C203.122 103.083 203.122 103.226 203.55 103.511C203.836 103.701 204.312 103.654 204.598 103.368C205.216 102.75 204.407 102.275 203.598 102.75Z" fill="#3D2314"></path><path d="M43.0938 104.606C43.0938 105.272 43.6175 105.605 44.3317 105.319C44.7126 105.177 44.8554 104.892 44.7126 104.654C44.3793 104.131 43.0938 104.083 43.0938 104.606Z" fill="#3D2314"></path><path d="M111.083 108.029C110.179 108.789 109.274 109.93 109.179 110.596C108.988 111.594 109.322 111.404 111.512 109.312C112.892 107.934 114.035 106.793 114.035 106.745C114.035 106.175 112.512 106.84 111.083 108.029Z" fill="#3D2314"></path><path d="M50.427 108.551C49.4272 108.836 48.713 109.454 48.3321 110.453C47.7608 111.736 47.8084 112.021 48.7606 113.305C49.4272 114.208 49.57 114.683 49.1891 114.683C48.2845 114.731 51.046 117.012 52.3315 117.345C54.6645 117.915 59.2829 115.729 59.2829 114.065C59.2829 113.685 53.9503 113.97 52.1411 114.493C50.2842 114.968 49.6176 112.734 51.2841 111.688C51.8078 111.308 52.6172 111.356 53.9979 111.831C56.2357 112.544 56.7118 112.306 55.95 110.88C55.4739 109.977 52.76 107.981 52.1411 108.076C51.9982 108.076 51.2364 108.314 50.427 108.551Z" fill="#3D2314"></path><path d="M117.798 110.311C116.656 111.261 115.227 112.592 114.656 113.21C114.037 113.828 113.561 114.113 113.561 113.781C113.561 113.495 113.228 113.258 112.847 113.258C111.99 113.258 111.895 114.066 112.752 114.351C113.133 114.494 112.99 114.921 112.228 115.73L111.133 116.918L114.799 117.251C120.417 117.678 125.559 117.631 125.226 117.06C124.797 116.395 122.274 115.397 119.989 114.969C118.941 114.779 117.941 114.494 117.798 114.399C117.608 114.303 118.084 113.02 118.894 111.547C119.703 110.121 120.227 108.837 120.131 108.695C119.989 108.599 118.989 109.312 117.798 110.311Z" fill="#3D2314"></path><path d="M60.9016 109.692C60.0446 110.358 60.0922 110.358 61.4254 109.977C64.1393 109.169 64.2821 109.074 63.0442 109.027C62.3776 108.979 61.4254 109.312 60.9016 109.692Z" fill="#3D2314"></path><path d="M226.398 110.404C226.398 110.641 226.636 110.879 226.922 110.879C227.16 110.879 227.255 110.641 227.113 110.404C226.97 110.118 226.732 109.928 226.589 109.928C226.494 109.928 226.398 110.118 226.398 110.404Z" fill="#3D2314"></path><path d="M78.2796 113.065C77.8035 113.588 77.375 114.158 77.375 114.253C77.375 114.396 79.3271 116.487 81.7077 118.911C85.5643 122.857 85.9452 123.379 85.1834 123.902C84.5644 124.378 84.5168 124.615 84.9453 124.901C85.2786 125.091 85.7547 125.043 86.0404 124.758C86.326 124.473 86.8498 124.378 87.2307 124.52C88.7066 125.091 86.2784 121.573 82.5647 117.818C80.5174 115.727 78.9938 113.825 79.1843 113.635C79.4223 113.397 80.4698 113.54 81.6125 113.968C83.5169 114.633 86.1832 115.109 89.7541 115.346C90.6587 115.441 91.8014 115.536 92.2775 115.584C92.9441 115.631 92.5156 116.249 90.6111 118.056L88.0877 120.432L90.3731 120.195C92.1347 120.005 92.6108 120.052 92.6108 120.622C92.6108 121.003 93.0869 122.524 93.6107 123.997C94.4677 126.184 94.7057 126.564 95.0866 125.899C95.6104 124.996 95.7056 118.103 95.2295 116.582C94.9914 115.774 95.1819 115.489 96.4198 115.061L97.9434 114.538L96.515 113.968C93.8963 112.827 89.6589 112.209 84.4216 112.114C79.708 112.066 79.1366 112.162 78.2796 113.065Z" fill="#3D2314"></path><path d="M65.424 114.16C68.4235 118.39 77.4222 124.665 78.3268 123.239C78.5649 122.906 78.2792 122.145 77.6602 121.432C75.1844 118.438 72.8038 115.966 71.5183 115.063L70.1375 114.065L70.7089 115.206C71.0422 115.824 72.0896 117.297 73.0419 118.485L74.7559 120.624L72.6134 118.961C71.4707 118.058 69.3281 116.299 67.8522 115.063C64.8526 112.449 63.9956 112.163 65.424 114.16Z" fill="#3D2314"></path><path d="M137.124 118.675C136.076 118.96 135.267 119.435 135.314 119.673C135.362 119.958 137.171 120.576 139.362 121.146C144.551 122.43 144.98 122.667 144.98 123.998C144.98 125.234 145.456 125.424 146.313 124.569C147.122 123.761 147.027 122.002 146.122 120.623C144.884 118.722 140.219 117.724 137.124 118.675Z" fill="#3D2314"></path><path d="M61.4214 122.287C63.2307 124.521 65.0399 126.612 65.3256 126.945C65.8969 127.515 66.2302 133.219 65.7541 133.219C65.6589 133.219 64.8018 132.506 63.8496 131.651C62.4689 130.462 62.0404 129.654 61.7547 127.753C61.5166 126.422 61.0881 124.948 60.8024 124.426C60.2787 123.617 60.2311 123.76 60.5168 125.376C60.6596 126.422 60.8977 127.705 61.0405 128.228C61.3738 129.274 61.5642 129.417 57.1363 125.852C53.4702 122.857 53.0893 122.619 53.0893 123.095C53.0893 123.332 54.9938 125.709 57.3744 128.371C61.2786 132.887 61.5642 133.362 61.0881 134.408C60.4692 135.786 59.755 135.501 59.755 133.885C59.755 132.506 59.2312 132.411 58.1838 133.6C57.2792 134.55 57.0887 137.26 57.8505 137.735C58.6599 138.21 58.4218 139.113 55.9936 144.2C50.5659 155.703 49.6136 157.842 48.709 160.076C48.1853 161.359 47.5663 162.975 47.3759 163.641C47.1854 164.306 46.8521 165.257 46.6617 165.78C46.4713 166.303 47.0426 165.875 47.8996 164.829C49.6613 162.785 53.4226 156.939 54.0892 155.18C54.5177 154.039 54.8033 153.896 57.5172 153.421C59.4693 153.088 61.5642 151.472 60.8977 150.807C60.6596 150.569 59.5645 150.331 58.5171 150.236L56.5174 150.094L57.3744 148.192C57.8505 147.147 58.6123 145.245 59.0884 144.009C59.6598 142.441 60.2787 141.538 61.0405 141.252C61.6595 141.015 62.088 140.634 61.9451 140.444C61.8023 140.207 62.326 139.684 63.1354 139.208C64.9923 138.115 64.8971 137.117 62.9926 136.927C61.4214 136.784 61.231 136.309 61.8975 134.313C62.088 133.79 70.2296 141.68 70.6105 142.726C70.7057 142.964 69.0869 144.009 67.0396 145.055C64.9447 146.053 62.945 147.289 62.5641 147.765C61.9451 148.525 62.0404 148.573 64.1353 148.287C65.3256 148.097 66.6111 147.907 66.992 147.86C67.4681 147.765 67.611 148.478 67.7062 150.807C67.7538 152.518 67.8966 154.514 68.0871 155.322C68.2299 156.226 68.0395 157.271 67.5157 158.269C66.373 160.361 66.9444 160.646 69.4202 159.22C72.3245 157.509 75.4193 153.944 76.1335 151.425C76.6096 149.951 75.2765 150.426 72.3721 152.708C71.0866 153.706 69.9439 154.514 69.8963 154.419C69.8011 154.372 69.9439 153.136 70.2296 151.71C70.4677 150.284 70.801 147.907 70.9438 146.386C71.2771 143.391 71.8484 143.011 73.372 144.722C73.8957 145.34 75.6574 147.004 77.2286 148.478C80.1329 151.139 80.1329 151.187 78.9902 151.662C77.6095 152.328 77.0381 154.277 77.7999 155.845C78.0856 156.511 78.3236 157.129 78.3236 157.224C78.3236 157.319 76.562 158.745 74.4195 160.408C70.4201 163.403 59.5645 173.956 58.041 176.237C54.8033 181.181 64.0877 174.098 74.0386 164.116C78.5617 159.553 80.3709 158.032 81.6089 157.794C82.4659 157.604 83.561 156.986 84.0371 156.416L84.8941 155.37L86.9414 157.034C90.1314 159.6 90.5123 159.743 89.6077 158.127C89.1792 157.366 88.465 155.037 87.9889 152.946C87.3223 149.904 87.1318 149.428 86.989 150.712C86.8938 151.615 87.0366 152.946 87.3223 153.754C87.608 154.562 87.7984 155.322 87.7032 155.417C87.608 155.513 86.6081 154.467 85.4654 153.088C83.6562 150.997 83.3229 150.236 83.0372 147.765C82.8468 146.148 82.7039 144.817 82.7515 144.77C82.7992 144.722 84.7989 146.291 87.1318 148.287C91.5121 151.948 93.7975 153.516 92.7977 152.185C90.8456 149.618 86.4177 144.247 85.7987 143.772C85.275 143.296 85.0845 142.013 85.1321 138.02C85.1321 135.216 84.8465 131.793 84.5132 130.462C83.9895 128.133 83.8942 127.991 82.7039 128.276C81.0375 128.656 78.3713 129.892 78.038 130.415C77.7999 130.843 79.133 131.08 80.8471 130.938C81.4184 130.89 81.6565 131.223 81.6565 132.174C81.6565 132.887 82.085 135.073 82.5611 137.022C83.0848 138.971 83.4181 140.634 83.3705 140.682C83.3229 140.73 80.7042 138.258 77.6095 135.216C74.4671 132.174 70.5153 128.418 68.8489 126.85L65.7541 124.093L67.7538 124.426C70.1344 124.806 70.2772 124.378 68.468 122.239C67.1348 120.67 64.8018 119.435 63.1354 119.435C62.2784 119.435 62.2308 119.577 62.6117 120.67C63.1354 122.049 62.945 121.954 59.993 119.72C58.3266 118.436 58.5171 118.721 61.4214 122.287ZM71.1818 135.453C71.1818 136.832 70.9914 137.973 70.801 137.973C70.6105 137.973 69.6583 137.165 68.706 136.166C67.2301 134.645 66.992 134.027 66.7539 131.365L66.5159 128.323L68.8489 130.652C71.039 132.839 71.1818 133.077 71.1818 135.453ZM75.8954 137.83C75.9907 137.925 76.1811 139.208 76.2763 140.682L76.4668 143.439L74.3718 141.395C72.4198 139.446 72.2293 139.113 72.2769 136.974L72.3245 134.645L73.991 136.166C74.9432 137.022 75.8002 137.782 75.8954 137.83ZM80.371 142.203C81.3232 143.296 81.9898 144.437 81.8945 144.96C81.7993 145.435 81.7041 146.386 81.7041 147.099C81.6565 148.81 81.2756 148.715 79.3711 146.529C78.1808 145.15 77.7999 144.2 77.7047 142.536C77.5618 139.826 78.1332 139.731 80.371 142.203ZM82.6087 153.374L83.7038 154.562L82.4659 154.847C80.8947 155.275 80.2281 154.847 80.2281 153.374C80.2281 151.9 81.1804 151.9 82.6087 153.374Z" fill="#3D2314"></path><path d="M122.131 120.72C119.512 121.623 119.417 121.67 120.131 122.383C120.988 123.239 129.177 123.049 132.082 122.05C136.271 120.672 134.891 119.911 128.32 119.959C125.987 119.959 123.369 120.292 122.131 120.72Z" fill="#3D2314"></path><path d="M80.7069 120.719C80.7069 121.052 80.3736 121.337 79.9927 121.337C79.1833 121.337 79.0881 121.765 79.707 122.715C80.0403 123.238 80.4212 123.286 81.0401 122.953C81.8495 122.573 81.8972 122.383 81.3258 121.337C80.9925 120.671 80.7069 120.434 80.7069 120.719Z" fill="#3D2314"></path><path d="M44.0469 123.24C44.0469 123.477 44.3802 123.715 44.7611 123.715C45.1419 123.715 45.4752 123.477 45.4752 123.24C45.4752 122.954 45.1419 122.764 44.7611 122.764C44.3802 122.764 44.0469 122.954 44.0469 123.24Z" fill="#3D2314"></path><path d="M134.124 124.189C134.791 126.138 137.505 128.277 139.79 128.658C141.837 128.99 144.17 128.087 144.932 126.661C145.313 125.948 145.075 125.853 142.933 125.853C141.123 125.853 139.552 125.425 137.171 124.284C135.41 123.476 133.839 122.763 133.743 122.763C133.696 122.763 133.839 123.429 134.124 124.189Z" fill="#3D2314"></path><path d="M186.885 127.328C186.075 128.278 185.504 129.181 185.647 129.276C185.933 129.562 187.504 127.898 188.361 126.424C189.123 125.141 188.551 125.474 186.885 127.328Z" fill="#3D2314"></path><path d="M109.752 126.613C109.752 128.087 113.037 133.078 115.608 135.407C117.941 137.546 118.322 138.116 117.846 138.687C117.513 139.067 116.561 139.4 115.751 139.4C114.656 139.4 114.466 139.542 114.989 139.875C115.561 140.255 115.37 140.635 113.847 142.204C112.799 143.297 111.228 144.391 110.323 144.676C109.276 145.009 108.895 145.341 109.276 145.579C109.657 145.817 109.133 146.577 107.562 148.003C105.229 150.142 104.848 150.57 102.944 152.757C102.372 153.47 101.23 154.753 100.468 155.609C97.992 158.318 98.0872 158.603 100.753 156.797C102.182 155.846 103.42 155.086 103.61 155.086C103.753 155.086 104.896 154.135 106.086 152.947C107.372 151.711 108.8 150.808 109.419 150.808C109.99 150.808 110.8 150.57 111.18 150.332C111.799 149.952 111.752 149.857 110.99 149.857C110.228 149.857 110.181 149.762 110.752 149.049C111.99 147.575 115.132 145.579 116.275 145.579C117.418 145.579 117.799 144.866 116.799 144.486C115.989 144.201 119.941 140.731 121.846 140.065C122.845 139.732 123.083 139.447 122.655 139.209C122.226 138.924 123.226 137.688 126.035 134.931C128.178 132.84 130.939 129.94 132.082 128.562L134.177 126.043L130.559 127.801C128.559 128.8 127.13 129.75 127.416 129.893C128.226 130.416 122.941 134.171 121.417 134.171C120.179 134.171 120.132 134.218 120.893 134.789C121.703 135.407 121.703 135.454 120.512 136.215C119.084 137.166 118.798 137.213 118.798 136.405C118.798 136.072 118.037 134.646 117.132 133.268C116.18 131.842 115.513 130.653 115.561 130.558C115.656 130.511 116.894 130.748 118.322 131.129C121.322 131.889 123.083 131.984 123.083 131.366C123.083 129.893 116.751 127.041 113.513 127.041C112.466 127.041 111.18 126.803 110.657 126.566C109.99 126.185 109.752 126.233 109.752 126.613Z" fill="#3D2314"></path><path d="M55.3279 129.274C54.7089 129.844 54.9946 130.367 55.9468 130.367C56.4705 130.367 56.8991 130.034 56.8991 129.654C56.8991 128.941 55.8992 128.656 55.3279 129.274Z" fill="#3D2314"></path><path d="M99.6544 129.606C98.7973 130.224 98.4641 131.793 99.1782 131.793C99.6544 131.793 101.654 129.749 101.654 129.274C101.654 128.751 100.511 128.941 99.6544 129.606Z" fill="#3D2314"></path><path d="M39.5247 129.847C39.1914 130.417 40.096 130.988 40.715 130.607C41.2387 130.275 40.9054 129.419 40.2389 129.419C40.0008 129.419 39.7151 129.609 39.5247 129.847Z" fill="#3D2314"></path><path d="M90.9899 132.269C89.6091 133.98 88.6093 137.117 89.0378 138.496C89.3711 139.446 89.3711 139.446 90.3233 138.591C90.8946 138.116 91.704 137.07 92.1802 136.309L93.0848 134.883V136.785C93.0848 139.779 94.8464 151.33 95.3702 151.853C96.132 152.613 95.4654 143.725 94.2275 136.547C93.0848 130.035 92.9896 129.892 90.9899 132.269Z" fill="#3D2314"></path><path d="M101.703 132.081C100.751 134.22 100.608 140.589 101.513 144.345L102.227 147.672L102.989 146.246C103.56 145.248 103.751 143.489 103.798 139.449V134.077L105.227 135.884C106.036 136.882 107.798 138.878 109.178 140.352L111.75 142.966L110.369 140.399C109.655 139.021 107.512 136.264 105.703 134.267L102.322 130.702L101.703 132.081Z" fill="#3D2314"></path><path d="M132.126 133.743C128.841 136.262 119.985 144.485 110.225 154.039L104.273 159.934L107.368 158.222C109.082 157.319 111.749 155.608 113.32 154.515C116.224 152.423 129.222 139.827 131.079 137.26C131.65 136.452 132.888 134.836 133.793 133.552C134.745 132.317 135.459 131.318 135.364 131.318C135.269 131.318 133.84 132.412 132.126 133.743Z" fill="#3D2314"></path><path d="M105.469 132.556C105.469 132.936 105.707 133.127 105.945 132.984C106.231 132.794 106.326 132.461 106.183 132.223C105.754 131.558 105.469 131.7 105.469 132.556Z" fill="#3D2314"></path><path d="M184.834 134.218C182.168 136.072 181.739 136.547 182.501 136.547C183.215 136.547 187.262 133.695 187.548 132.982C187.929 131.984 187.834 132.031 184.834 134.218Z" fill="#3D2314"></path><path d="M184.5 139.828C182.453 140.494 178.977 142.395 179.596 142.585C180.31 142.823 184.786 140.921 185.5 140.066C185.786 139.686 185.976 139.4 185.881 139.448C185.786 139.448 185.167 139.638 184.5 139.828Z" fill="#3D2314"></path><path d="M52.0445 140.4C51.5684 140.685 51.1875 141.065 51.1875 141.303C51.1875 141.968 52.9491 141.873 53.3776 141.255C53.8538 140.447 52.9491 139.877 52.0445 140.4Z" fill="#3D2314"></path><path d="M71.8985 150.333C71.7556 150.571 71.9461 150.809 72.3746 150.809C72.8031 150.809 72.9935 150.571 72.8507 150.333C72.7079 150.048 72.4698 149.858 72.3746 149.858C72.2794 149.858 72.0413 150.048 71.8985 150.333Z" fill="#3D2314"></path><path d="M93.848 153.754C93.9908 153.945 93.6099 154.61 93.0862 155.18C92.1816 156.131 92.0863 156.654 92.2768 158.936C92.5149 161.693 94.6574 166.969 95.562 166.969C95.9429 166.969 95.9905 165.685 95.7525 162.786C95.1811 155.941 95.1335 156.274 96.0858 156.321C96.7047 156.369 96.8952 156.084 96.7999 155.085C96.7047 153.945 96.4666 153.707 95.1811 153.564C94.3241 153.469 93.7528 153.564 93.848 153.754Z" fill="#3D2314"></path><path d="M56.2346 158.887C52.3304 160.551 51.759 161.026 54.1873 160.646C55.1395 160.503 55.9489 160.551 55.9489 160.836C55.9489 161.692 57.282 161.216 57.5201 160.266C57.9962 158.507 59.0437 159.6 59.4246 162.262C59.6626 163.688 59.9483 165.352 60.0911 166.017C60.3768 167.111 60.4244 167.063 60.7101 165.494C61.1386 163.07 60.7101 157.461 60.0435 157.461C59.7579 157.461 58.0438 158.127 56.2346 158.887Z" fill="#3D2314"></path><path d="M99.7496 162.262C99.7496 163.925 99.1782 165.161 97.7499 166.587L96.75 167.585L97.7499 167.966C100.987 169.154 103.892 164.733 101.844 161.834C100.797 160.313 99.7496 160.503 99.7496 162.262Z" fill="#3D2314"></path><path d="M275.204 161.267C275.061 161.505 275.251 161.742 275.632 161.742C276.061 161.742 276.394 161.505 276.394 161.267C276.394 160.982 276.204 160.792 275.965 160.792C275.68 160.792 275.347 160.982 275.204 161.267Z" fill="#3D2314"></path><path d="M54.0941 167.447C53.2847 168.92 53.4276 172.96 54.3322 173.721C54.9511 174.196 55.1416 174.196 55.5225 173.626C56.7128 171.82 56.57 168.112 55.2368 167.019C54.7131 166.591 54.475 166.686 54.0941 167.447Z" fill="#3D2314"></path><path d="M100.227 172.197C100.227 172.434 100.417 172.672 100.655 172.672C100.941 172.672 101.274 172.434 101.417 172.197C101.56 171.911 101.369 171.721 100.988 171.721C100.56 171.721 100.227 171.911 100.227 172.197Z" fill="#3D2314"></path><path d="M278.297 173.622C278.297 173.86 278.535 174.098 278.773 174.098C279.059 174.098 279.249 173.86 279.249 173.622C279.249 173.337 279.059 173.147 278.773 173.147C278.535 173.147 278.297 173.337 278.297 173.622Z" fill="#3D2314"></path><path d="M79.5614 174.81C79.4185 175.238 79.5614 175.523 79.9899 175.523C80.3708 175.523 80.7041 175.191 80.7041 174.81C80.7041 174.43 80.5136 174.097 80.2756 174.097C80.0375 174.097 79.7518 174.43 79.5614 174.81Z" fill="#3D2314"></path><path d="M43.3287 178.376C43.1858 178.614 43.3763 178.852 43.7572 178.852C44.1857 178.852 44.519 178.614 44.519 178.376C44.519 178.091 44.3285 177.901 44.0905 177.901C43.8048 177.901 43.4715 178.091 43.3287 178.376Z" fill="#3D2314"></path><path d="M65.9005 179.615L64.7578 180.898L66.0909 180.043C66.8051 179.615 67.3765 179.045 67.3765 178.807C67.3765 178.141 67.1384 178.284 65.9005 179.615Z" fill="#3D2314"></path><path d="M84.0391 185.506C84.0391 186.029 84.2771 186.457 84.5152 186.457C84.8009 186.457 84.9913 186.029 84.9913 185.506C84.9913 184.983 84.8009 184.556 84.5152 184.556C84.2771 184.556 84.0391 184.983 84.0391 185.506Z" fill="#3D2314"></path><path d="M128.175 207.656C127.794 208.036 128.223 208.797 128.842 208.797C129.08 208.797 129.27 208.464 129.27 208.084C129.27 207.371 128.699 207.133 128.175 207.656Z" fill="#3D2314"></path><path d="M73.47 223.63C73.708 223.868 74.2318 224.011 74.565 223.916C74.9459 223.773 74.7079 223.583 74.0889 223.393C73.2795 223.203 73.0891 223.25 73.47 223.63Z" fill="#3D2314"></path><path d="M133.321 227.337C133.178 227.575 133.368 227.812 133.749 227.812C134.178 227.812 134.511 227.575 134.511 227.337C134.511 227.052 134.321 226.862 134.083 226.862C133.797 226.862 133.464 227.052 133.321 227.337Z" fill="#3D2314"></path><path d="M142.602 238.697C142.602 238.934 142.84 239.315 143.078 239.457C143.363 239.6 143.554 239.552 143.554 239.267C143.554 239.029 143.363 238.649 143.078 238.507C142.84 238.364 142.602 238.412 142.602 238.697Z" fill="#3D2314"></path><path d="M128.276 241.169C127.752 241.502 127.752 241.597 128.276 241.597C128.609 241.597 128.799 241.882 128.657 242.215C128.514 242.643 128.752 242.833 129.418 242.738C129.99 242.69 130.799 242.595 131.18 242.548C131.656 242.5 131.704 242.405 131.323 242.215C130.989 242.12 130.704 241.74 130.704 241.407C130.704 240.741 129.228 240.551 128.276 241.169Z" fill="#3D2314"></path><path d="M164.508 249.439C164.508 249.82 164.746 250.152 164.984 250.152C165.27 250.152 165.46 249.82 165.46 249.439C165.46 249.059 165.27 248.726 164.984 248.726C164.746 248.726 164.508 249.059 164.508 249.439Z" fill="#3D2314"></path></svg> 