<?xml version="1.0" encoding="UTF-8"?> <svg xmlns="http://www.w3.org/2000/svg" width="413" height="602" viewBox="0 0 413 602" fill="none"><path d="M193.03 3.77839C188.161 9.62165 198.873 31.7773 206.421 31.7773C210.56 31.7773 222.246 15.2214 222.246 9.62165C222.246 2.80452 216.16 -0.604051 210.316 3.04799C206.421 5.48268 204.717 5.48268 202.282 3.04799C198.386 -0.84752 196.682 -0.604051 193.03 3.77839ZM201.551 7.6739C203.012 12.2998 203.499 12.2998 207.395 8.89125C212.994 3.77839 217.377 4.02186 217.377 8.89125C217.377 13.5172 208.125 29.3427 205.447 29.3427C202.038 29.3427 193.03 10.3521 194.491 6.45655C196.439 1.10023 199.604 1.58717 201.551 7.6739Z" fill="#53332A"></path><path d="M29.895 11.5708C4.8177 16.6836 -2.97332 44.1956 9.20014 85.5854C16.0173 108.715 16.9912 129.653 11.8783 147.427C9.93055 154.244 7.73933 162.278 6.76545 165.687L5.06117 171.773L10.174 166.174C16.2607 159.113 22.104 140.366 24.2952 121.619C25.2691 110.663 24.0518 102.628 17.965 80.9595C8.95667 49.5519 9.44361 38.1089 20.3997 25.9354L27.2169 18.3879L58.3809 19.6052C123.631 21.7965 156.986 20.8226 166.238 16.4401C172.324 13.5185 173.055 12.5446 168.672 13.762C142.865 19.6052 121.926 20.0922 89.058 15.9532C47.1813 10.5969 37.686 9.86647 29.895 11.5708Z" fill="#53332A"></path><path d="M239.281 13.0325C249.263 22.7713 265.819 23.9887 316.217 18.1454C353.955 13.763 372.702 14.7368 384.876 22.0409C401.188 32.0231 405.814 53.9354 397.779 83.8821C394.858 94.5947 392.667 110.177 392.667 118.698C392.667 133.063 397.779 151.81 403.136 157.166C404.84 158.871 404.84 157.897 403.623 154.732C398.51 141.097 399.484 117.724 405.814 95.5686C409.222 83.3951 412.144 69.2739 412.144 63.9176C412.144 50.0399 405.57 33.484 396.806 24.9625C382.684 11.5717 363.207 9.62398 308.67 16.1976C273.854 20.5801 256.324 19.8497 243.907 13.5195C237.577 10.3544 236.603 10.1109 239.281 13.0325Z" fill="#53332A"></path><path d="M405.82 222.415C405.576 242.136 404.359 249.927 399.976 260.64C384.638 298.134 384.151 313.473 396.568 343.419C402.655 358.028 405.576 369.471 406.55 382.131C407.767 395.765 408.498 398.93 409.959 394.791C413.124 387 408.498 359.245 400.95 339.767C392.185 316.638 392.429 298.378 402.411 268.431C408.498 249.684 409.715 241.893 409.715 222.902C409.715 210.242 408.985 199.529 408.011 199.042C406.794 198.312 406.063 209.024 405.82 222.415Z" fill="#53332A"></path><path d="M3.36104 216.816C3.11757 238.728 5.30879 247.737 18.6996 276.466C27.221 295.213 28.6818 300.813 28.6818 314.447C28.6818 328.568 27.708 331.977 19.9169 344.881C2.14369 373.61 -0.777936 393.818 10.6651 407.209L15.5345 412.809L11.639 405.018C4.33492 389.436 7.74348 373.61 24.7863 347.072C40.6118 321.995 39.8814 310.065 19.9169 267.458C9.2043 244.815 7.25655 238.485 5.79573 219.981L3.84798 198.556L3.36104 216.816Z" fill="#53332A"></path><path d="M20.4049 448.594C20.1615 456.385 15.779 481.462 10.1792 504.592C-1.26381 553.772 -2.23769 570.572 5.55332 583.232C16.7529 601.249 33.0653 604.657 78.8375 597.597C92.7153 595.649 118.523 593.701 136.053 593.458C163.078 592.971 167.704 592.484 165.513 589.562C162.347 585.667 118.523 587.371 72.2639 592.971C40.6129 596.866 29.9002 595.162 19.4311 584.693C9.44883 574.954 8.47495 559.859 15.0486 524.799C23.8135 478.053 25.7613 457.602 23.0831 445.672L20.6484 434.716L20.4049 448.594Z" fill="#53332A"></path><path d="M402.415 452.006C399.006 460.771 399.493 486.335 403.632 517.499C405.58 532.108 407.284 548.663 407.284 554.02C407.284 567.654 399.493 583.479 389.754 589.566C382.694 593.949 379.285 594.436 362.242 593.218C351.53 592.244 336.678 590.053 329.374 588.105C307.462 582.019 254.872 584.697 248.055 592.001C246.108 594.192 246.595 594.436 250.247 593.218C252.925 592.244 265.585 590.784 278.246 590.053C297.236 589.079 306.975 589.81 332.052 595.166C370.52 603.2 378.555 603.2 391.946 595.409C409.962 584.697 416.049 564.732 410.693 533.812C405.093 501.187 402.415 468.562 404.606 456.876C406.797 444.459 406.067 442.511 402.415 452.006Z" fill="#53332A"></path></svg> 